<svg width="436" height="65" viewBox="0 0 436 65" xmlns="http://www.w3.org/2000/svg"><path d="M62.866 23.871L67.948 4.17h3.102l-6.27 23.76h-3.894L55.507 7.8l-5.544 20.13h-4.125L39.601 4.17h3.432l5.049 19.767L53.527 4.17h4.191l5.148 19.701zm9.844-4.521q0-4.719 2.805-7.128 2.244-1.947 5.676-1.947 3.993 0 6.27 2.541 2.178 2.376 2.178 6.534 0 4.653-2.739 7.095-2.244 1.98-5.742 1.98-3.993 0-6.303-2.64-2.145-2.409-2.145-6.435zm3.3 0q0 3.3 1.683 5.049 1.386 1.452 3.531 1.452 2.508 0 3.861-1.881 1.254-1.716 1.254-4.62 0-3.366-1.65-5.082-1.353-1.419-3.498-1.419-2.475 0-3.861 1.881-1.32 1.716-1.32 4.62zm21.427-.033v8.613h-3.168V10.77h2.607l.429 2.541q1.452-3.036 4.356-3.036.957 0 1.881.231v3.168q-1.122-.297-2.013-.297-1.914 0-3.003 1.551-1.089 1.551-1.089 4.389zm12.748-.033v8.646h-3.168V4.17h3.168v13.266l6.732-6.666h4.158l-7.722 7.458 8.679 9.702h-4.224l-7.623-8.646zM128.543 4.17v3.729h-3.564V4.17h3.564zm-.198 6.6v17.16h-3.168V10.77h3.168zm8.788 6.567V27.93h-3.168V10.77h2.607l.363 2.178q1.914-2.673 5.214-2.673 3.036 0 4.653 1.881 1.419 1.683 1.419 4.587V27.93h-3.168V16.776q0-3.795-3.663-3.795-1.914 0-3.135 1.32-1.122 1.188-1.122 3.036zm16.345 11.748h3.399q.231 1.32 1.337 2.046 1.105.726 2.92.726 2.541 0 3.795-1.32 1.056-1.122 1.056-3.135v-2.211q-1.914 2.244-5.709 2.244-3.432 0-5.577-2.475-2.013-2.31-2.013-6.006 0-4.29 2.442-6.633 2.079-2.046 5.346-2.046 3.696 0 5.577 2.772l.495-2.277h2.607v16.797q0 3.234-2.343 5.082-2.112 1.716-5.577 1.716-3.597 0-5.643-1.617-1.716-1.353-2.112-3.663zm2.508-10.065q0 2.805 1.65 4.389 1.353 1.32 3.333 1.32 2.607 0 3.993-1.716 1.188-1.452 1.188-3.894 0-3.135-1.617-4.785-1.353-1.353-3.564-1.353-2.442 0-3.762 1.683-1.221 1.584-1.221 4.356zm38.168-14.949V6.81q-1.584-.396-2.607-.396-.858 0-1.337.462-.478.462-.478 1.287v2.607h3.696v2.706h-3.696V27.93h-3.168V13.476h-2.541V10.77h2.541V8.361q0-2.277 1.485-3.564 1.32-1.122 3.3-1.122 1.287 0 2.805.396zm6.313 15.246v8.613h-3.168V10.77h2.607l.429 2.541q1.452-3.036 4.356-3.036.957 0 1.881.231v3.168q-1.122-.297-2.013-.297-1.914 0-3.003 1.551-1.089 1.551-1.089 4.389zm8.26.033q0-4.719 2.805-7.128 2.244-1.947 5.676-1.947 3.993 0 6.27 2.541 2.178 2.376 2.178 6.534 0 4.653-2.739 7.095-2.244 1.98-5.742 1.98-3.993 0-6.303-2.64-2.145-2.409-2.145-6.435zm3.3 0q0 3.3 1.683 5.049 1.386 1.452 3.531 1.452 2.508 0 3.861-1.881 1.254-1.716 1.254-4.62 0-3.366-1.65-5.082-1.353-1.419-3.498-1.419-2.475 0-3.861 1.881-1.32 1.716-1.32 4.62zm21.427-1.98v10.56h-3.168V10.77h2.607l.33 2.013q1.749-2.508 5.049-2.508 3.597 0 5.049 2.706 1.716-2.706 5.577-2.706 2.871 0 4.422 1.749 1.386 1.617 1.386 4.422V27.93h-3.168V16.677q0-3.696-3.333-3.696-1.98 0-3.168 1.551-.957 1.254-.957 2.937V27.93h-3.168V16.677q0-3.696-3.333-3.696-1.848 0-3.069 1.452-1.056 1.221-1.056 2.937zM274.229 17.469V27.93h-3.168V4.17h3.168v8.547q1.881-2.442 5.016-2.442 3.036 0 4.653 1.881 1.419 1.683 1.419 4.587V27.93h-3.168V16.776q0-3.795-3.663-3.795-1.947 0-3.168 1.353-1.089 1.221-1.089 3.135zm15.553 1.881q0-4.719 2.805-7.128 2.244-1.947 5.676-1.947 3.993 0 6.27 2.541 2.178 2.376 2.178 6.534 0 4.653-2.739 7.095-2.244 1.98-5.742 1.98-3.993 0-6.303-2.64-2.145-2.409-2.145-6.435zm3.3 0q0 3.3 1.683 5.049 1.386 1.452 3.531 1.452 2.508 0 3.861-1.881 1.254-1.716 1.254-4.62 0-3.366-1.65-5.082-1.353-1.419-3.498-1.419-2.475 0-3.861 1.881-1.32 1.716-1.32 4.62zm21.427-1.98v10.56h-3.168V10.77h2.607l.33 2.013q1.749-2.508 5.049-2.508 3.597 0 5.049 2.706 1.716-2.706 5.577-2.706 2.871 0 4.422 1.749 1.386 1.617 1.386 4.422V27.93h-3.168V16.677q0-3.696-3.333-3.696-1.98 0-3.168 1.551-.957 1.254-.957 2.937V27.93h-3.168V16.677q0-3.696-3.333-3.696-1.848 0-3.069 1.452-1.056 1.221-1.056 2.937zm38.389 5.61h3.432q-.726 2.607-2.871 4.092-2.013 1.353-4.818 1.353-4.059 0-6.336-2.574-2.079-2.409-2.079-6.501 0-4.653 2.64-7.062 2.178-2.013 5.61-2.013 4.026 0 6.072 2.607 1.98 2.508 1.98 7.161H343.46q.198 3.036 1.848 4.521 1.353 1.188 3.432 1.188 1.617 0 2.805-.891.99-.759 1.353-1.881zm-4.356-10.164q-2.112 0-3.399 1.32-1.221 1.221-1.551 3.399h9.702q-.165-2.475-1.65-3.696-1.188-1.023-3.102-1.023zm27.047-8.646v3.729h-3.564V4.17h3.564zm-.198 6.6v17.16h-3.168V10.77h3.168zM391.043 23.277q0-1.452-1.518-2.178-.891-.396-3.465-.99-3.168-.693-4.521-2.013-1.122-1.122-1.122-2.937 0-2.409 1.947-3.696 1.749-1.188 4.719-1.188 3.069 0 4.983 1.518 1.65 1.32 2.046 3.498h-3.234q-.561-2.508-3.828-2.508-1.815 0-2.706.66-.726.561-.726 1.419 0 1.056.808 1.584.809.528 3.185 1.056 3.63.792 5.049 1.947 1.584 1.287 1.584 3.597 0 2.574-2.112 4.059-1.914 1.32-5.049 1.32-3.432 0-5.445-1.65-1.749-1.452-1.947-3.762h3.234q.528 2.904 4.191 2.904 1.98 0 3.069-.858.858-.693.858-1.782zM127.355 52.35q0-4.719 2.805-7.128 2.244-1.947 5.676-1.947 3.993 0 6.27 2.541 2.178 2.376 2.178 6.534 0 4.653-2.739 7.095-2.244 1.98-5.742 1.98-3.993 0-6.303-2.64-2.145-2.409-2.145-6.435zm3.3 0q0 3.3 1.683 5.049 1.386 1.452 3.531 1.452 2.508 0 3.861-1.881 1.254-1.716 1.254-4.62 0-3.366-1.65-5.082-1.353-1.419-3.498-1.419-2.475 0-3.861 1.881-1.32 1.716-1.32 4.62zm21.427-2.013V60.93h-3.168V43.77h2.607l.363 2.178q1.914-2.673 5.214-2.673 3.036 0 4.653 1.881 1.419 1.683 1.419 4.587V60.93h-3.168V49.776q0-3.795-3.663-3.795-1.914 0-3.135 1.32-1.122 1.188-1.122 3.036zM187.181 58.389v2.706q-1.221.33-2.343.33-2.376 0-3.564-1.485-1.023-1.221-1.023-3.267V46.476h-2.541V43.77h2.541l.198-4.125h2.97v4.125h3.696v2.706h-3.696v10.263q0 1.914 1.815 1.914.858 0 1.947-.264zm7.138-7.92V60.93h-3.168V37.17h3.168v8.547q1.881-2.442 5.016-2.442 3.036 0 4.653 1.881 1.419 1.683 1.419 4.587V60.93h-3.168V49.776q0-3.795-3.663-3.795-1.947 0-3.168 1.353-1.089 1.221-1.089 3.135zm28.225 5.511h3.432q-.726 2.607-2.871 4.092-2.013 1.353-4.818 1.353-4.059 0-6.336-2.574-2.079-2.409-2.079-6.501 0-4.653 2.64-7.062 2.178-2.013 5.61-2.013 4.026 0 6.072 2.607 1.98 2.508 1.98 7.161h-13.068q.198 3.036 1.848 4.521 1.353 1.188 3.432 1.188 1.617 0 2.805-.891.99-.759 1.353-1.881zm-4.356-10.164q-2.112 0-3.399 1.32-1.221 1.221-1.551 3.399h9.702q-.165-2.475-1.65-3.696-1.188-1.023-3.102-1.023zm26.849 6.501v8.613h-3.168V43.77h2.607l.429 2.541q1.452-3.036 4.356-3.036.957 0 1.881.231v3.168q-1.122-.297-2.013-.297-1.914 0-3.003 1.551-1.089 1.551-1.089 4.389zm12.946-15.147v3.729h-3.564V37.17h3.564zm-.198 6.6v17.16h-3.168V43.77h3.168zm15.652 12.507q0-1.452-1.518-2.178-.891-.396-3.465-.99-3.168-.693-4.521-2.013-1.122-1.122-1.122-2.937 0-2.409 1.947-3.696 1.749-1.188 4.719-1.188 3.069 0 4.983 1.518 1.65 1.32 2.046 3.498h-3.234q-.561-2.508-3.828-2.508-1.815 0-2.706.66-.726.561-.726 1.419 0 1.056.808 1.584.809.528 3.185 1.056 3.63.792 5.049 1.947 1.584 1.287 1.584 3.597 0 2.574-2.112 4.059-1.914 1.32-5.049 1.32-3.432 0-5.445-1.65-1.749-1.452-1.947-3.762h3.234q.528 2.904 4.191 2.904 1.98 0 3.069-.858.858-.693.858-1.782zm19.513-.297h3.432q-.726 2.607-2.871 4.092-2.013 1.353-4.818 1.353-4.059 0-6.336-2.574-2.079-2.409-2.079-6.501 0-4.653 2.64-7.062 2.178-2.013 5.61-2.013 4.026 0 6.072 2.607 1.98 2.508 1.98 7.161h-13.068q.198 3.036 1.848 4.521 1.353 1.188 3.432 1.188 1.617 0 2.805-.891.99-.759 1.353-1.881zm-4.356-10.164q-2.112 0-3.399 1.32-1.221 1.221-1.551 3.399h9.702q-.165-2.475-1.65-3.696-1.188-1.023-3.102-1.023zm17.335 11.286v3.828h-3.828v-3.828h3.828z" fill="#f37821"/></svg>