<svg width="390" height="51" viewBox="0 0 390 51" xmlns="http://www.w3.org/2000/svg"><path d="M3.036 12.24h7.502v1.056H3.036v6.446h8.14v1.078H1.804V4.98h9.372v1.078h-8.14v6.182zm12.276 1.474v7.106h-1.188V9.38h.99l.132 1.958q.616-1.166 1.738-1.782.946-.506 2.068-.506 1.958 0 3.014 1.21.946 1.034.946 2.772v7.788h-1.188v-7.744q0-1.54-.902-2.332-.792-.682-2.134-.682-1.474 0-2.508 1.122-.968 1.034-.968 2.53zm17.952 4.092q0-1.144-1.012-1.716-.836-.484-2.728-.814-3.718-.638-3.718-3.19 0-1.452 1.188-2.266 1.1-.77 2.97-.77 1.914 0 3.146.968 1.1.858 1.32 2.2h-1.232q-.154-1.034-1.144-1.65-.88-.55-2.134-.55-1.518 0-2.288.66-.616.506-.616 1.298 0 .968.704 1.485.704.517 2.486.847 2.398.462 3.388 1.298.902.77.902 2.134 0 1.54-1.342 2.508-1.232.902-3.146.902-2.112 0-3.366-1.056-1.034-.902-1.232-2.31h1.232q.132 1.188 1.144 1.826.88.572 2.244.572 1.606 0 2.508-.814.726-.66.726-1.562zm3.85-.682V9.38h1.188v7.744q0 1.584.924 2.354.77.66 2.068.66 1.584 0 2.574-1.21.836-1.034.836-2.53V9.38h1.188v11.44h-.968l-.154-1.826q-.616 1.122-1.76 1.694-.924.462-1.98.462-1.892 0-2.926-1.144-.99-1.056-.99-2.882zm13.354-2.552v6.248H49.28V9.38h.968l.176 2.2q.902-2.53 3.212-2.53.66 0 1.188.176v1.166q-.704-.198-1.254-.198-1.408 0-2.288 1.32-.814 1.188-.814 3.058zm14.366 3.124h1.254q-.44 1.694-1.826 2.618-1.232.836-2.926.836-2.574 0-4.07-1.76-1.364-1.628-1.364-4.29 0-3.036 1.694-4.686 1.386-1.364 3.52-1.364 2.486 0 3.872 1.76 1.298 1.65 1.298 4.576h-9.174q.088 2.486 1.452 3.74 1.122 1.012 2.794 1.012 1.386 0 2.332-.748.836-.638 1.144-1.694zm-3.718-7.678q-1.738 0-2.838 1.276-.99 1.166-1.144 3.102h7.92q-.11-2.266-1.364-3.432-1.034-.946-2.574-.946zm22.88 7.678h1.254q-.44 1.694-1.826 2.618-1.232.836-2.926.836-2.574 0-4.07-1.76-1.364-1.628-1.364-4.29 0-3.036 1.694-4.686 1.386-1.364 3.52-1.364 2.486 0 3.872 1.76 1.298 1.65 1.298 4.576h-9.174q.088 2.486 1.452 3.74 1.122 1.012 2.794 1.012 1.386 0 2.332-.748.836-.638 1.144-1.694zm-3.718-7.678q-1.738 0-2.838 1.276-.99 1.166-1.144 3.102h7.92q-.11-2.266-1.364-3.432-1.034-.946-2.574-.946zm9.196 3.696v7.106h-1.188V9.38h.99l.132 1.782q.594-1.122 1.672-1.672.858-.44 1.848-.44 2.662 0 3.41 2.266.572-1.21 1.76-1.804.924-.462 1.98-.462 1.848 0 2.838 1.144.858 1.034.858 2.772v7.854h-1.188v-7.788q0-2.97-2.75-2.97-1.496 0-2.42 1.21-.792 1.012-.792 2.464v7.084h-1.188v-7.788q0-2.97-2.706-2.97-1.496 0-2.442 1.188-.814 1.034-.814 2.464zm17.578 11.066V9.38h.968l.198 2.134q.594-1.21 1.694-1.848 1.034-.616 2.354-.616 2.332 0 3.63 1.694 1.188 1.54 1.188 4.224 0 3.146-1.606 4.818-1.32 1.364-3.344 1.364-1.43 0-2.508-.748-.88-.616-1.386-1.628v6.006h-1.188zm8.8-9.834q0-2.574-1.232-3.85-.99-1.034-2.596-1.034-1.76 0-2.794 1.32-1.078 1.32-1.078 3.718 0 2.596 1.21 3.938 1.012 1.1 2.596 1.1 1.87 0 2.904-1.452.99-1.364.99-3.74zm3.96-9.966H121v15.84h-1.188V4.98zm3.916 10.12q0-3.102 1.716-4.73 1.408-1.32 3.564-1.32 2.53 0 3.96 1.738 1.298 1.584 1.298 4.312 0 3.102-1.672 4.708-1.386 1.342-3.564 1.342-2.508 0-3.96-1.76-1.342-1.628-1.342-4.29zm1.232 0q0 2.596 1.32 3.96 1.078 1.122 2.728 1.122 1.958 0 3.036-1.452.99-1.342.99-3.63 0-2.618-1.276-3.982-1.056-1.1-2.75-1.1-1.936 0-3.036 1.452-1.012 1.342-1.012 3.63zm19.272-5.72h1.188l-4.026 11.528q-.946 2.706-1.474 3.41-.616.792-1.716.792-.528 0-1.188-.22v-.968q.572.198 1.122.198.66 0 1.023-.561.363-.561 1.089-2.739h-.462l-4.554-11.44h1.276l4.092 10.516 3.63-10.516zm11.088 8.316h1.254q-.44 1.694-1.826 2.618-1.232.836-2.926.836-2.574 0-4.07-1.76-1.364-1.628-1.364-4.29 0-3.036 1.694-4.686 1.386-1.364 3.52-1.364 2.486 0 3.872 1.76 1.298 1.65 1.298 4.576h-9.174q.088 2.486 1.452 3.74 1.122 1.012 2.794 1.012 1.386 0 2.332-.748.836-.638 1.144-1.694zm-3.718-7.678q-1.738 0-2.838 1.276-.99 1.166-1.144 3.102h7.92q-.11-2.266-1.364-3.432-1.034-.946-2.574-.946zm16.28 7.678h1.254q-.44 1.694-1.826 2.618-1.232.836-2.926.836-2.574 0-4.07-1.76-1.364-1.628-1.364-4.29 0-3.036 1.694-4.686 1.386-1.364 3.52-1.364 2.486 0 3.872 1.76 1.298 1.65 1.298 4.576h-9.174q.088 2.486 1.452 3.74 1.122 1.012 2.794 1.012 1.386 0 2.332-.748.836-.638 1.144-1.694zm-3.718-7.678q-1.738 0-2.838 1.276-.99 1.166-1.144 3.102h7.92q-.11-2.266-1.364-3.432-1.034-.946-2.574-.946zm14.982 7.788q0-1.144-1.012-1.716-.836-.484-2.728-.814-3.718-.638-3.718-3.19 0-1.452 1.188-2.266 1.1-.77 2.97-.77 1.914 0 3.146.968 1.1.858 1.32 2.2h-1.232q-.154-1.034-1.144-1.65-.88-.55-2.134-.55-1.518 0-2.288.66-.616.506-.616 1.298 0 .968.704 1.485.704.517 2.486.847 2.398.462 3.388 1.298.902.77.902 2.134 0 1.54-1.342 2.508-1.232.902-3.146.902-2.112 0-3.366-1.056-1.034-.902-1.232-2.31h1.232q.132 1.188 1.144 1.826.88.572 2.244.572 1.606 0 2.508-.814.726-.66.726-1.562zm11.462-5.456h-1.232q.132-1.584 1.496-2.508 1.188-.792 2.948-.792 2.068 0 3.234 1.144 1.012.99 1.012 2.618v8.008h-.968l-.176-1.892q-1.32 2.222-4.048 2.222-1.826 0-2.882-.968-.946-.88-.946-2.266 0-1.606 1.144-2.486 1.056-.836 3.256-1.188l3.432-.572v-.99q0-1.32-.946-2.046-.814-.616-2.178-.616-1.452 0-2.31.726-.726.616-.836 1.606zm2.574 7.788q1.54 0 2.662-1.056 1.034-.99 1.034-2.332v-2.134l-3.08.528q-2.09.352-2.882 1.1-.638.572-.638 1.584 0 1.188.924 1.804.748.506 1.98.506zm9.35-5.566v6.248h-1.188V9.38h.968l.176 2.2q.902-2.53 3.212-2.53.66 0 1.188.176v1.166q-.704-.198-1.254-.198-1.408 0-2.288 1.32-.814 1.188-.814 3.058zm14.366 3.124h1.254q-.44 1.694-1.826 2.618-1.232.836-2.926.836-2.574 0-4.07-1.76-1.364-1.628-1.364-4.29 0-3.036 1.694-4.686 1.386-1.364 3.52-1.364 2.486 0 3.872 1.76 1.298 1.65 1.298 4.576h-9.174q.088 2.486 1.452 3.74 1.122 1.012 2.794 1.012 1.386 0 2.332-.748.836-.638 1.144-1.694zm-3.718-7.678q-1.738 0-2.838 1.276-.99 1.166-1.144 3.102h7.92q-.11-2.266-1.364-3.432-1.034-.946-2.574-.946zm21.582 7.788q0-1.144-1.012-1.716-.836-.484-2.728-.814-3.718-.638-3.718-3.19 0-1.452 1.188-2.266 1.1-.77 2.97-.77 1.914 0 3.146.968 1.1.858 1.32 2.2h-1.232q-.154-1.034-1.144-1.65-.88-.55-2.134-.55-1.518 0-2.288.66-.616.506-.616 1.298 0 .968.704 1.485.704.517 2.486.847 2.398.462 3.388 1.298.902.77.902 2.134 0 1.54-1.342 2.508-1.232.902-3.146.902-2.112 0-3.366-1.056-1.034-.902-1.232-2.31h1.232q.132 1.188 1.144 1.826.88.572 2.244.572 1.606 0 2.508-.814.726-.66.726-1.562zm4.862-5.456h-1.232q.132-1.584 1.496-2.508 1.188-.792 2.948-.792 2.068 0 3.234 1.144 1.012.99 1.012 2.618v8.008h-.968l-.176-1.892q-1.32 2.222-4.048 2.222-1.826 0-2.882-.968-.946-.88-.946-2.266 0-1.606 1.144-2.486 1.056-.836 3.256-1.188l3.432-.572v-.99q0-1.32-.946-2.046-.814-.616-2.178-.616-1.452 0-2.31.726-.726.616-.836 1.606zm2.574 7.788q1.54 0 2.662-1.056 1.034-.99 1.034-2.332v-2.134l-3.08.528q-2.09.352-2.882 1.1-.638.572-.638 1.584 0 1.188.924 1.804.748.506 1.98.506zm13.178-15.224v1.012q-.99-.264-1.694-.264-1.54 0-1.54 1.738v1.98h2.684v1.012h-2.684V20.82h-1.188V10.392h-1.694V9.38h1.694V7.444q0-1.386.836-2.156.726-.638 1.87-.638.902 0 1.716.264zm9.856 12.782h1.254q-.44 1.694-1.826 2.618-1.232.836-2.926.836-2.574 0-4.07-1.76-1.364-1.628-1.364-4.29 0-3.036 1.694-4.686 1.386-1.364 3.52-1.364 2.486 0 3.872 1.76 1.298 1.65 1.298 4.576h-9.174q.088 2.486 1.452 3.74 1.122 1.012 2.794 1.012 1.386 0 2.332-.748.836-.638 1.144-1.694zm-3.718-7.678q-1.738 0-2.838 1.276-.99 1.166-1.144 3.102h7.92q-.11-2.266-1.364-3.432-1.034-.946-2.574-.946zM2.596 38.75H1.364q.132-1.584 1.496-2.508 1.188-.792 2.948-.792 2.068 0 3.234 1.144 1.012.99 1.012 2.618v8.008h-.968l-.176-1.892Q7.59 47.55 4.862 47.55q-1.826 0-2.882-.968-.946-.88-.946-2.266 0-1.606 1.144-2.486 1.056-.836 3.256-1.188l3.432-.572v-.99q0-1.32-.946-2.046-.814-.616-2.178-.616-1.452 0-2.31.726-.726.616-.836 1.606zm2.574 7.788q1.54 0 2.662-1.056 1.034-.99 1.034-2.332v-2.134l-3.08.528q-2.09.352-2.882 1.1-.638.572-.638 1.584 0 1.188.924 1.804.748.506 1.98.506zm9.35-6.424v7.106h-1.188V35.78h.99l.132 1.958q.616-1.166 1.738-1.782.946-.506 2.068-.506 1.958 0 3.014 1.21.946 1.034.946 2.772v7.788h-1.188v-7.744q0-1.54-.902-2.332-.792-.682-2.134-.682-1.474 0-2.508 1.122-.968 1.034-.968 2.53zm18.656-4.334h1.188l-4.026 11.528q-.946 2.706-1.474 3.41-.616.792-1.716.792-.528 0-1.188-.22v-.968q.572.198 1.122.198.66 0 1.023-.561.363-.561 1.089-2.739h-.462l-4.554-11.44h1.276l4.092 10.516 3.63-10.516zm13.992 10.186l2.838-10.186h1.166l-3.3 11.44h-1.43L43.23 36.99l-3.036 10.23H38.72l-3.498-11.44h1.21l3.058 10.23 3.036-10.23h1.496l3.146 10.186zm7.37-5.808v7.062H53.35V31.38h1.188v6.292q.594-1.122 1.694-1.716.946-.506 2.046-.506 1.958 0 3.014 1.21.946 1.034.946 2.772v7.788H61.05v-7.744q0-1.54-.902-2.332-.792-.682-2.134-.682-1.474 0-2.508 1.122-.968 1.034-.968 2.574zm19.25 3.938h1.254q-.44 1.694-1.826 2.618-1.232.836-2.926.836-2.574 0-4.07-1.76-1.364-1.628-1.364-4.29 0-3.036 1.694-4.686 1.386-1.364 3.52-1.364 2.486 0 3.872 1.76 1.298 1.65 1.298 4.576h-9.174q.088 2.486 1.452 3.74 1.122 1.012 2.794 1.012 1.386 0 2.332-.748.836-.638 1.144-1.694zm-3.718-7.678q-1.738 0-2.838 1.276-.99 1.166-1.144 3.102h7.92q-.11-2.266-1.364-3.432-1.034-.946-2.574-.946zm9.196 4.554v6.248h-1.188V35.78h.968l.176 2.2q.902-2.53 3.212-2.53.66 0 1.188.176v1.166q-.704-.198-1.254-.198-1.408 0-2.288 1.32-.814 1.188-.814 3.058zm14.366 3.124h1.254q-.44 1.694-1.826 2.618-1.232.836-2.926.836-2.574 0-4.07-1.76Q84.7 44.162 84.7 41.5q0-3.036 1.694-4.686 1.386-1.364 3.52-1.364 2.486 0 3.872 1.76 1.298 1.65 1.298 4.576H85.91q.088 2.486 1.452 3.74 1.122 1.012 2.794 1.012 1.386 0 2.332-.748.836-.638 1.144-1.694zm-3.718-7.678q-1.738 0-2.838 1.276-.99 1.166-1.144 3.102h7.92q-.11-2.266-1.364-3.432-1.034-.946-2.574-.946zm18.898-.638v1.034h-2.662v8.118q0 1.606 1.496 1.606.704 0 1.386-.176v.968q-.748.22-1.452.22-1.342 0-2.024-.77-.594-.682-.594-1.87v-8.096h-1.65V35.78h1.65l.066-2.75h1.122v2.75h2.662zm3.542 4.378v7.062h-1.188V31.38h1.188v6.292q.594-1.122 1.694-1.716.946-.506 2.046-.506 1.958 0 3.014 1.21.946 1.034.946 2.772v7.788h-1.188v-7.744q0-1.54-.902-2.332-.792-.682-2.134-.682-1.474 0-2.508 1.122-.968 1.034-.968 2.574zm19.25 3.938h1.254q-.44 1.694-1.826 2.618-1.232.836-2.926.836-2.574 0-4.07-1.76-1.364-1.628-1.364-4.29 0-3.036 1.694-4.686 1.386-1.364 3.52-1.364 2.486 0 3.872 1.76 1.298 1.65 1.298 4.576h-9.174q.088 2.486 1.452 3.74 1.122 1.012 2.794 1.012 1.386 0 2.332-.748.836-.638 1.144-1.694zm-3.718-7.678q-1.738 0-2.838 1.276-.99 1.166-1.144 3.102h7.92q-.11-2.266-1.364-3.432-1.034-.946-2.574-.946zm15.246-.638h1.188l-4.026 11.528q-.946 2.706-1.474 3.41-.616.792-1.716.792-.528 0-1.188-.22v-.968q.572.198 1.122.198.66 0 1.023-.561.363-.561 1.089-2.739h-.462l-4.554-11.44h1.276l4.092 10.516 3.63-10.516zm11.044 4.334v7.106h-1.188V35.78h.99l.132 1.958q.616-1.166 1.738-1.782.946-.506 2.068-.506 1.958 0 3.014 1.21.946 1.034.946 2.772v7.788h-1.188v-7.744q0-1.54-.902-2.332-.792-.682-2.134-.682-1.474 0-2.508 1.122-.968 1.034-.968 2.53zm19.25 3.982h1.254q-.44 1.694-1.826 2.618-1.232.836-2.926.836-2.574 0-4.07-1.76-1.364-1.628-1.364-4.29 0-3.036 1.694-4.686 1.386-1.364 3.52-1.364 2.486 0 3.872 1.76 1.298 1.65 1.298 4.576h-9.174q.088 2.486 1.452 3.74 1.122 1.012 2.794 1.012 1.386 0 2.332-.748.836-.638 1.144-1.694zm-3.718-7.678q-1.738 0-2.838 1.276-.99 1.166-1.144 3.102h7.92q-.11-2.266-1.364-3.432-1.034-.946-2.574-.946zm16.28 7.678h1.254q-.44 1.694-1.826 2.618-1.232.836-2.926.836-2.574 0-4.07-1.76-1.364-1.628-1.364-4.29 0-3.036 1.694-4.686 1.386-1.364 3.52-1.364 2.486 0 3.872 1.76 1.298 1.65 1.298 4.576h-9.174q.088 2.486 1.452 3.74 1.122 1.012 2.794 1.012 1.386 0 2.332-.748.836-.638 1.144-1.694zm-3.718-7.678q-1.738 0-2.838 1.276-.99 1.166-1.144 3.102h7.92q-.11-2.266-1.364-3.432-1.034-.946-2.574-.946zm17.38-5.038v15.84h-.968l-.198-2.178q-.616 1.232-1.694 1.892-1.034.616-2.332.616-2.244 0-3.586-1.694-1.254-1.584-1.254-4.246 0-3.168 1.606-4.818 1.298-1.342 3.3-1.342 1.43 0 2.53.748.902.594 1.408 1.606V31.38h1.188zm-8.8 10.23q0 2.574 1.254 3.872 1.012 1.056 2.596 1.056 1.76 0 2.816-1.342 1.056-1.342 1.056-3.696 0-2.596-1.254-3.938-1.012-1.1-2.618-1.1-1.826 0-2.86 1.43-.99 1.364-.99 3.718zm23.078-5.83v1.034h-2.662v8.118q0 1.606 1.496 1.606.704 0 1.386-.176v.968q-.748.22-1.452.22-1.342 0-2.024-.77-.594-.682-.594-1.87v-8.096h-1.65V35.78h1.65l.066-2.75h1.122v2.75h2.662zm1.584 5.72q0-3.102 1.716-4.73 1.408-1.32 3.564-1.32 2.53 0 3.96 1.738 1.298 1.584 1.298 4.312 0 3.102-1.672 4.708-1.386 1.342-3.564 1.342-2.508 0-3.96-1.76-1.342-1.628-1.342-4.29zm1.232 0q0 2.596 1.32 3.96 1.078 1.122 2.728 1.122 1.958 0 3.036-1.452.99-1.342.99-3.63 0-2.618-1.276-3.982-1.056-1.1-2.75-1.1-1.936 0-3.036 1.452-1.012 1.342-1.012 3.63zm29.37 4.466l2.838-10.186h1.166l-3.3 11.44h-1.43l-3.212-10.23-3.036 10.23h-1.474l-3.498-11.44h1.21l3.058 10.23 3.036-10.23h1.496l3.146 10.186zm5.258-4.466q0-3.102 1.716-4.73 1.408-1.32 3.564-1.32 2.53 0 3.96 1.738 1.298 1.584 1.298 4.312 0 3.102-1.672 4.708-1.386 1.342-3.564 1.342-2.508 0-3.96-1.76-1.342-1.628-1.342-4.29zm1.232 0q0 2.596 1.32 3.96 1.078 1.122 2.728 1.122 1.958 0 3.036-1.452.99-1.342.99-3.63 0-2.618-1.276-3.982-1.056-1.1-2.75-1.1-1.936 0-3.036 1.452-1.012 1.342-1.012 3.63zm13.222-.528v6.248h-1.188V35.78h.968l.176 2.2q.902-2.53 3.212-2.53.66 0 1.188.176v1.166q-.704-.198-1.254-.198-1.408 0-2.288 1.32-.814 1.188-.814 3.058zm7.502.198v6.05h-1.188V31.38h1.188v9.064l5.478-4.664h1.606l-5.874 4.994 6.6 6.446h-1.606l-6.204-6.05zm11.792 4.29v1.76h-1.606v-1.76h1.606z" fill="#fff"/></svg>